<mxfile host="app.diagrams.net" modified="2022-01-27T23:54:27.034Z" agent="5.0 (Windows NT 10.0; Win64; x64) AppleWebKit/537.36 (KHTML, like Gecko) Chrome/97.0.4692.99 Safari/537.36" etag="McQ7s89MWA8Vw1gPy8sT" version="16.4.11" type="github">
  <diagram id="S-RU24WyVOo1lFlnVsUV" name="第 1 页">
    <mxGraphModel dx="2249" dy="762" grid="1" gridSize="10" guides="1" tooltips="1" connect="1" arrows="1" fold="1" page="1" pageScale="1" pageWidth="827" pageHeight="1169" math="0" shadow="0">
      <root>
        <mxCell id="0" />
        <mxCell id="1" parent="0" />
        <mxCell id="_s2NQ5ghen87F7LA_Sny-5" value="" style="edgeStyle=orthogonalEdgeStyle;rounded=0;orthogonalLoop=1;jettySize=auto;html=1;startArrow=none;" edge="1" parent="1" source="_s2NQ5ghen87F7LA_Sny-95" target="_s2NQ5ghen87F7LA_Sny-4">
          <mxGeometry relative="1" as="geometry" />
        </mxCell>
        <mxCell id="_s2NQ5ghen87F7LA_Sny-94" value="" style="edgeStyle=orthogonalEdgeStyle;rounded=0;orthogonalLoop=1;jettySize=auto;html=1;startArrow=none;" edge="1" parent="1" source="_s2NQ5ghen87F7LA_Sny-98" target="_s2NQ5ghen87F7LA_Sny-93">
          <mxGeometry relative="1" as="geometry" />
        </mxCell>
        <mxCell id="_s2NQ5ghen87F7LA_Sny-103" style="edgeStyle=orthogonalEdgeStyle;rounded=0;orthogonalLoop=1;jettySize=auto;html=1;entryX=0.5;entryY=0;entryDx=0;entryDy=0;startArrow=none;" edge="1" parent="1" source="_s2NQ5ghen87F7LA_Sny-104" target="_s2NQ5ghen87F7LA_Sny-102">
          <mxGeometry relative="1" as="geometry">
            <Array as="points">
              <mxPoint x="690" y="140" />
              <mxPoint x="690" y="140" />
            </Array>
          </mxGeometry>
        </mxCell>
        <mxCell id="_s2NQ5ghen87F7LA_Sny-107" style="edgeStyle=orthogonalEdgeStyle;rounded=0;orthogonalLoop=1;jettySize=auto;html=1;entryX=0.569;entryY=-0.067;entryDx=0;entryDy=0;entryPerimeter=0;startArrow=none;" edge="1" parent="1" source="_s2NQ5ghen87F7LA_Sny-108" target="_s2NQ5ghen87F7LA_Sny-106">
          <mxGeometry relative="1" as="geometry">
            <Array as="points">
              <mxPoint x="882" y="130" />
              <mxPoint x="882" y="130" />
            </Array>
          </mxGeometry>
        </mxCell>
        <mxCell id="_s2NQ5ghen87F7LA_Sny-112" style="edgeStyle=orthogonalEdgeStyle;rounded=0;orthogonalLoop=1;jettySize=auto;html=1;entryX=0.5;entryY=0;entryDx=0;entryDy=0;" edge="1" parent="1" source="_s2NQ5ghen87F7LA_Sny-1" target="_s2NQ5ghen87F7LA_Sny-111">
          <mxGeometry relative="1" as="geometry" />
        </mxCell>
        <mxCell id="_s2NQ5ghen87F7LA_Sny-1" value="运营商网关返回mto" style="whiteSpace=wrap;html=1;" vertex="1" parent="1">
          <mxGeometry x="260" y="20" width="120" height="60" as="geometry" />
        </mxCell>
        <mxCell id="_s2NQ5ghen87F7LA_Sny-7" value="" style="edgeStyle=orthogonalEdgeStyle;rounded=0;orthogonalLoop=1;jettySize=auto;html=1;" edge="1" parent="1" source="_s2NQ5ghen87F7LA_Sny-4" target="_s2NQ5ghen87F7LA_Sny-6">
          <mxGeometry relative="1" as="geometry" />
        </mxCell>
        <mxCell id="_s2NQ5ghen87F7LA_Sny-4" value="解析返回内容" style="whiteSpace=wrap;html=1;" vertex="1" parent="1">
          <mxGeometry x="115" y="170" width="120" height="60" as="geometry" />
        </mxCell>
        <mxCell id="_s2NQ5ghen87F7LA_Sny-9" value="" style="edgeStyle=orthogonalEdgeStyle;rounded=0;orthogonalLoop=1;jettySize=auto;html=1;" edge="1" parent="1" source="_s2NQ5ghen87F7LA_Sny-6" target="_s2NQ5ghen87F7LA_Sny-8">
          <mxGeometry relative="1" as="geometry" />
        </mxCell>
        <mxCell id="_s2NQ5ghen87F7LA_Sny-6" value="移除处理中的ticketMap（handleTickets）对应数据" style="whiteSpace=wrap;html=1;" vertex="1" parent="1">
          <mxGeometry x="100" y="280" width="150" height="60" as="geometry" />
        </mxCell>
        <mxCell id="_s2NQ5ghen87F7LA_Sny-11" value="" style="edgeStyle=orthogonalEdgeStyle;rounded=0;orthogonalLoop=1;jettySize=auto;html=1;" edge="1" parent="1" source="_s2NQ5ghen87F7LA_Sny-8" target="_s2NQ5ghen87F7LA_Sny-10">
          <mxGeometry relative="1" as="geometry" />
        </mxCell>
        <mxCell id="_s2NQ5ghen87F7LA_Sny-24" value="" style="edgeStyle=orthogonalEdgeStyle;rounded=0;orthogonalLoop=1;jettySize=auto;html=1;" edge="1" parent="1" source="_s2NQ5ghen87F7LA_Sny-8" target="_s2NQ5ghen87F7LA_Sny-23">
          <mxGeometry relative="1" as="geometry" />
        </mxCell>
        <mxCell id="_s2NQ5ghen87F7LA_Sny-55" style="edgeStyle=orthogonalEdgeStyle;rounded=0;orthogonalLoop=1;jettySize=auto;html=1;entryX=0.567;entryY=-0.033;entryDx=0;entryDy=0;entryPerimeter=0;" edge="1" parent="1" source="_s2NQ5ghen87F7LA_Sny-8" target="_s2NQ5ghen87F7LA_Sny-53">
          <mxGeometry relative="1" as="geometry">
            <Array as="points">
              <mxPoint x="1019" y="410" />
              <mxPoint x="1019" y="478" />
            </Array>
          </mxGeometry>
        </mxCell>
        <mxCell id="_s2NQ5ghen87F7LA_Sny-8" value="移除拒绝处理的ticketMap（abnormalHanleTickets）对应记录" style="whiteSpace=wrap;html=1;" vertex="1" parent="1">
          <mxGeometry x="97.5" y="380" width="155" height="60" as="geometry" />
        </mxCell>
        <mxCell id="_s2NQ5ghen87F7LA_Sny-14" value="" style="edgeStyle=orthogonalEdgeStyle;rounded=0;orthogonalLoop=1;jettySize=auto;html=1;" edge="1" parent="1" source="_s2NQ5ghen87F7LA_Sny-10" target="_s2NQ5ghen87F7LA_Sny-13">
          <mxGeometry relative="1" as="geometry" />
        </mxCell>
        <mxCell id="_s2NQ5ghen87F7LA_Sny-10" value="检查并设置ticket的失败重试时间" style="whiteSpace=wrap;html=1;" vertex="1" parent="1">
          <mxGeometry x="115" y="500" width="120" height="60" as="geometry" />
        </mxCell>
        <mxCell id="_s2NQ5ghen87F7LA_Sny-12" value="超速处理" style="text;html=1;align=center;verticalAlign=middle;resizable=0;points=[];autosize=1;strokeColor=none;fillColor=none;" vertex="1" parent="1">
          <mxGeometry x="175" y="470" width="60" height="20" as="geometry" />
        </mxCell>
        <mxCell id="_s2NQ5ghen87F7LA_Sny-16" value="" style="edgeStyle=orthogonalEdgeStyle;rounded=0;orthogonalLoop=1;jettySize=auto;html=1;" edge="1" parent="1" source="_s2NQ5ghen87F7LA_Sny-13" target="_s2NQ5ghen87F7LA_Sny-15">
          <mxGeometry relative="1" as="geometry" />
        </mxCell>
        <mxCell id="_s2NQ5ghen87F7LA_Sny-19" value="" style="edgeStyle=orthogonalEdgeStyle;rounded=0;orthogonalLoop=1;jettySize=auto;html=1;" edge="1" parent="1" source="_s2NQ5ghen87F7LA_Sny-13" target="_s2NQ5ghen87F7LA_Sny-18">
          <mxGeometry relative="1" as="geometry" />
        </mxCell>
        <mxCell id="_s2NQ5ghen87F7LA_Sny-13" value="失败重试时间早于当前时间？" style="rhombus;whiteSpace=wrap;html=1;" vertex="1" parent="1">
          <mxGeometry x="105" y="590" width="140" height="50" as="geometry" />
        </mxCell>
        <mxCell id="_s2NQ5ghen87F7LA_Sny-57" value="" style="edgeStyle=orthogonalEdgeStyle;rounded=0;orthogonalLoop=1;jettySize=auto;html=1;" edge="1" parent="1" source="_s2NQ5ghen87F7LA_Sny-15" target="_s2NQ5ghen87F7LA_Sny-56">
          <mxGeometry relative="1" as="geometry">
            <Array as="points">
              <mxPoint x="175" y="940" />
            </Array>
          </mxGeometry>
        </mxCell>
        <mxCell id="_s2NQ5ghen87F7LA_Sny-15" value="设置ticket状态为ATTEMPT_FAIL" style="whiteSpace=wrap;html=1;" vertex="1" parent="1">
          <mxGeometry x="115" y="700" width="120" height="45" as="geometry" />
        </mxCell>
        <mxCell id="_s2NQ5ghen87F7LA_Sny-17" value="是" style="text;html=1;align=center;verticalAlign=middle;resizable=0;points=[];autosize=1;strokeColor=none;fillColor=none;" vertex="1" parent="1">
          <mxGeometry x="175" y="660" width="30" height="20" as="geometry" />
        </mxCell>
        <mxCell id="_s2NQ5ghen87F7LA_Sny-21" value="" style="edgeStyle=orthogonalEdgeStyle;rounded=0;orthogonalLoop=1;jettySize=auto;html=1;" edge="1" parent="1" source="_s2NQ5ghen87F7LA_Sny-18" target="_s2NQ5ghen87F7LA_Sny-20">
          <mxGeometry relative="1" as="geometry" />
        </mxCell>
        <mxCell id="_s2NQ5ghen87F7LA_Sny-18" value="超速重试次数加1" style="whiteSpace=wrap;html=1;" vertex="1" parent="1">
          <mxGeometry x="-105" y="585" width="120" height="60" as="geometry" />
        </mxCell>
        <mxCell id="_s2NQ5ghen87F7LA_Sny-20" value="queueTickets" style="ellipse;whiteSpace=wrap;html=1;" vertex="1" parent="1">
          <mxGeometry x="-105" y="680" width="120" height="60" as="geometry" />
        </mxCell>
        <mxCell id="_s2NQ5ghen87F7LA_Sny-22" value="mto重试发送ticket到运营商用" style="text;html=1;align=center;verticalAlign=middle;resizable=0;points=[];autosize=1;strokeColor=none;fillColor=none;" vertex="1" parent="1">
          <mxGeometry x="-130" y="740" width="170" height="20" as="geometry" />
        </mxCell>
        <mxCell id="_s2NQ5ghen87F7LA_Sny-26" value="" style="edgeStyle=orthogonalEdgeStyle;rounded=0;orthogonalLoop=1;jettySize=auto;html=1;" edge="1" parent="1" source="_s2NQ5ghen87F7LA_Sny-23" target="_s2NQ5ghen87F7LA_Sny-25">
          <mxGeometry relative="1" as="geometry" />
        </mxCell>
        <mxCell id="_s2NQ5ghen87F7LA_Sny-33" value="" style="edgeStyle=orthogonalEdgeStyle;rounded=0;orthogonalLoop=1;jettySize=auto;html=1;" edge="1" parent="1" source="_s2NQ5ghen87F7LA_Sny-23" target="_s2NQ5ghen87F7LA_Sny-32">
          <mxGeometry relative="1" as="geometry" />
        </mxCell>
        <mxCell id="_s2NQ5ghen87F7LA_Sny-23" value="msgId不为空" style="whiteSpace=wrap;html=1;" vertex="1" parent="1">
          <mxGeometry x="354" y="500" width="120" height="40" as="geometry" />
        </mxCell>
        <mxCell id="_s2NQ5ghen87F7LA_Sny-28" value="" style="edgeStyle=orthogonalEdgeStyle;rounded=0;orthogonalLoop=1;jettySize=auto;html=1;" edge="1" parent="1" source="_s2NQ5ghen87F7LA_Sny-25" target="_s2NQ5ghen87F7LA_Sny-27">
          <mxGeometry relative="1" as="geometry" />
        </mxCell>
        <mxCell id="_s2NQ5ghen87F7LA_Sny-37" value="" style="edgeStyle=orthogonalEdgeStyle;rounded=0;orthogonalLoop=1;jettySize=auto;html=1;" edge="1" parent="1" source="_s2NQ5ghen87F7LA_Sny-25" target="_s2NQ5ghen87F7LA_Sny-36">
          <mxGeometry relative="1" as="geometry" />
        </mxCell>
        <mxCell id="_s2NQ5ghen87F7LA_Sny-25" value="达到最大失败重试次数" style="whiteSpace=wrap;html=1;" vertex="1" parent="1">
          <mxGeometry x="550" y="500" width="126" height="40" as="geometry" />
        </mxCell>
        <mxCell id="_s2NQ5ghen87F7LA_Sny-27" value="queueTickets" style="ellipse;whiteSpace=wrap;html=1;" vertex="1" parent="1">
          <mxGeometry x="553" y="610" width="120" height="60" as="geometry" />
        </mxCell>
        <mxCell id="_s2NQ5ghen87F7LA_Sny-29" value="否" style="text;html=1;align=center;verticalAlign=middle;resizable=0;points=[];autosize=1;strokeColor=none;fillColor=none;" vertex="1" parent="1">
          <mxGeometry x="605" y="560" width="30" height="20" as="geometry" />
        </mxCell>
        <mxCell id="_s2NQ5ghen87F7LA_Sny-30" value="mto重试发送ticket到运营商用" style="text;html=1;align=center;verticalAlign=middle;resizable=0;points=[];autosize=1;strokeColor=none;fillColor=none;" vertex="1" parent="1">
          <mxGeometry x="520" y="680" width="170" height="20" as="geometry" />
        </mxCell>
        <mxCell id="_s2NQ5ghen87F7LA_Sny-31" value="否" style="text;html=1;align=center;verticalAlign=middle;resizable=0;points=[];autosize=1;strokeColor=none;fillColor=none;" vertex="1" parent="1">
          <mxGeometry x="490" y="500" width="30" height="20" as="geometry" />
        </mxCell>
        <mxCell id="_s2NQ5ghen87F7LA_Sny-35" value="" style="edgeStyle=orthogonalEdgeStyle;rounded=0;orthogonalLoop=1;jettySize=auto;html=1;" edge="1" parent="1" source="_s2NQ5ghen87F7LA_Sny-32" target="_s2NQ5ghen87F7LA_Sny-34">
          <mxGeometry relative="1" as="geometry" />
        </mxCell>
        <mxCell id="_s2NQ5ghen87F7LA_Sny-32" value="如果返回结果不是success，则构造失败状态报告，放进本地队列" style="whiteSpace=wrap;html=1;" vertex="1" parent="1">
          <mxGeometry x="354" y="590" width="120" height="60" as="geometry" />
        </mxCell>
        <mxCell id="_s2NQ5ghen87F7LA_Sny-34" value="reportQueue" style="ellipse;whiteSpace=wrap;html=1;" vertex="1" parent="1">
          <mxGeometry x="354" y="680" width="120" height="60" as="geometry" />
        </mxCell>
        <mxCell id="_s2NQ5ghen87F7LA_Sny-39" value="" style="edgeStyle=orthogonalEdgeStyle;rounded=0;orthogonalLoop=1;jettySize=auto;html=1;" edge="1" parent="1" source="_s2NQ5ghen87F7LA_Sny-36" target="_s2NQ5ghen87F7LA_Sny-38">
          <mxGeometry relative="1" as="geometry">
            <Array as="points">
              <mxPoint x="819" y="615" />
            </Array>
          </mxGeometry>
        </mxCell>
        <mxCell id="_s2NQ5ghen87F7LA_Sny-58" style="edgeStyle=orthogonalEdgeStyle;rounded=0;orthogonalLoop=1;jettySize=auto;html=1;" edge="1" parent="1" source="_s2NQ5ghen87F7LA_Sny-36" target="_s2NQ5ghen87F7LA_Sny-56">
          <mxGeometry relative="1" as="geometry">
            <Array as="points">
              <mxPoint x="819" y="940" />
            </Array>
          </mxGeometry>
        </mxCell>
        <mxCell id="_s2NQ5ghen87F7LA_Sny-36" value="设置ticket状态为ATTEMPT_FAILED" style="whiteSpace=wrap;html=1;" vertex="1" parent="1">
          <mxGeometry x="759" y="490" width="120" height="60" as="geometry" />
        </mxCell>
        <mxCell id="_s2NQ5ghen87F7LA_Sny-41" value="" style="edgeStyle=orthogonalEdgeStyle;rounded=0;orthogonalLoop=1;jettySize=auto;html=1;" edge="1" parent="1" source="_s2NQ5ghen87F7LA_Sny-38" target="_s2NQ5ghen87F7LA_Sny-40">
          <mxGeometry relative="1" as="geometry" />
        </mxCell>
        <mxCell id="_s2NQ5ghen87F7LA_Sny-38" value="originId（重发标识）是否有值" style="whiteSpace=wrap;html=1;" vertex="1" parent="1">
          <mxGeometry x="959" y="585" width="120" height="60" as="geometry" />
        </mxCell>
        <mxCell id="_s2NQ5ghen87F7LA_Sny-44" value="" style="edgeStyle=orthogonalEdgeStyle;rounded=0;orthogonalLoop=1;jettySize=auto;html=1;" edge="1" parent="1" source="_s2NQ5ghen87F7LA_Sny-40" target="_s2NQ5ghen87F7LA_Sny-43">
          <mxGeometry relative="1" as="geometry" />
        </mxCell>
        <mxCell id="_s2NQ5ghen87F7LA_Sny-49" value="" style="edgeStyle=orthogonalEdgeStyle;rounded=0;orthogonalLoop=1;jettySize=auto;html=1;" edge="1" parent="1" source="_s2NQ5ghen87F7LA_Sny-40" target="_s2NQ5ghen87F7LA_Sny-48">
          <mxGeometry relative="1" as="geometry" />
        </mxCell>
        <mxCell id="_s2NQ5ghen87F7LA_Sny-40" value="状态是否成功" style="whiteSpace=wrap;html=1;" vertex="1" parent="1">
          <mxGeometry x="1159" y="585" width="120" height="60" as="geometry" />
        </mxCell>
        <mxCell id="_s2NQ5ghen87F7LA_Sny-42" value="是" style="text;html=1;align=center;verticalAlign=middle;resizable=0;points=[];autosize=1;strokeColor=none;fillColor=none;" vertex="1" parent="1">
          <mxGeometry x="1100" y="590" width="30" height="20" as="geometry" />
        </mxCell>
        <mxCell id="_s2NQ5ghen87F7LA_Sny-46" value="" style="edgeStyle=orthogonalEdgeStyle;rounded=0;orthogonalLoop=1;jettySize=auto;html=1;" edge="1" parent="1" source="_s2NQ5ghen87F7LA_Sny-43" target="_s2NQ5ghen87F7LA_Sny-45">
          <mxGeometry relative="1" as="geometry" />
        </mxCell>
        <mxCell id="_s2NQ5ghen87F7LA_Sny-43" value="构建ReportMap放进队列" style="whiteSpace=wrap;html=1;" vertex="1" parent="1">
          <mxGeometry x="1359" y="585" width="141" height="60" as="geometry" />
        </mxCell>
        <mxCell id="_s2NQ5ghen87F7LA_Sny-45" value="reportMapQueue" style="ellipse;whiteSpace=wrap;html=1;" vertex="1" parent="1">
          <mxGeometry x="1369.5" y="692.5" width="120" height="60" as="geometry" />
        </mxCell>
        <mxCell id="_s2NQ5ghen87F7LA_Sny-47" value="是" style="text;html=1;align=center;verticalAlign=middle;resizable=0;points=[];autosize=1;strokeColor=none;fillColor=none;" vertex="1" parent="1">
          <mxGeometry x="1295" y="590" width="30" height="20" as="geometry" />
        </mxCell>
        <mxCell id="_s2NQ5ghen87F7LA_Sny-51" value="" style="edgeStyle=orthogonalEdgeStyle;rounded=0;orthogonalLoop=1;jettySize=auto;html=1;" edge="1" parent="1" source="_s2NQ5ghen87F7LA_Sny-48" target="_s2NQ5ghen87F7LA_Sny-50">
          <mxGeometry relative="1" as="geometry" />
        </mxCell>
        <mxCell id="_s2NQ5ghen87F7LA_Sny-48" value="构造失败状态报告，放进队列" style="whiteSpace=wrap;html=1;" vertex="1" parent="1">
          <mxGeometry x="1159" y="725" width="120" height="60" as="geometry" />
        </mxCell>
        <mxCell id="_s2NQ5ghen87F7LA_Sny-50" value="reportQueue" style="ellipse;whiteSpace=wrap;html=1;" vertex="1" parent="1">
          <mxGeometry x="959" y="725" width="120" height="60" as="geometry" />
        </mxCell>
        <mxCell id="_s2NQ5ghen87F7LA_Sny-52" value="否" style="text;html=1;align=center;verticalAlign=middle;resizable=0;points=[];autosize=1;strokeColor=none;fillColor=none;" vertex="1" parent="1">
          <mxGeometry x="1215" y="660" width="30" height="20" as="geometry" />
        </mxCell>
        <mxCell id="_s2NQ5ghen87F7LA_Sny-54" value="" style="edgeStyle=orthogonalEdgeStyle;rounded=0;orthogonalLoop=1;jettySize=auto;html=1;" edge="1" parent="1" source="_s2NQ5ghen87F7LA_Sny-53" target="_s2NQ5ghen87F7LA_Sny-38">
          <mxGeometry relative="1" as="geometry" />
        </mxCell>
        <mxCell id="_s2NQ5ghen87F7LA_Sny-53" value="设置ticket状态" style="whiteSpace=wrap;html=1;" vertex="1" parent="1">
          <mxGeometry x="959" y="480" width="120" height="60" as="geometry" />
        </mxCell>
        <mxCell id="_s2NQ5ghen87F7LA_Sny-60" value="" style="edgeStyle=orthogonalEdgeStyle;rounded=0;orthogonalLoop=1;jettySize=auto;html=1;" edge="1" parent="1" source="_s2NQ5ghen87F7LA_Sny-56" target="_s2NQ5ghen87F7LA_Sny-59">
          <mxGeometry relative="1" as="geometry" />
        </mxCell>
        <mxCell id="_s2NQ5ghen87F7LA_Sny-56" value="commitTicket" style="whiteSpace=wrap;html=1;" vertex="1" parent="1">
          <mxGeometry x="605" y="910" width="120" height="60" as="geometry" />
        </mxCell>
        <mxCell id="_s2NQ5ghen87F7LA_Sny-62" value="" style="edgeStyle=orthogonalEdgeStyle;rounded=0;orthogonalLoop=1;jettySize=auto;html=1;" edge="1" parent="1" source="_s2NQ5ghen87F7LA_Sny-59" target="_s2NQ5ghen87F7LA_Sny-61">
          <mxGeometry relative="1" as="geometry" />
        </mxCell>
        <mxCell id="_s2NQ5ghen87F7LA_Sny-59" value="从frameWrapper（frameEnvoloperMap）获取帧" style="whiteSpace=wrap;html=1;" vertex="1" parent="1">
          <mxGeometry x="605" y="1010" width="120" height="60" as="geometry" />
        </mxCell>
        <mxCell id="_s2NQ5ghen87F7LA_Sny-64" value="" style="edgeStyle=orthogonalEdgeStyle;rounded=0;orthogonalLoop=1;jettySize=auto;html=1;" edge="1" parent="1" source="_s2NQ5ghen87F7LA_Sny-61" target="_s2NQ5ghen87F7LA_Sny-63">
          <mxGeometry relative="1" as="geometry" />
        </mxCell>
        <mxCell id="_s2NQ5ghen87F7LA_Sny-69" value="" style="edgeStyle=orthogonalEdgeStyle;rounded=0;orthogonalLoop=1;jettySize=auto;html=1;" edge="1" parent="1" source="_s2NQ5ghen87F7LA_Sny-61" target="_s2NQ5ghen87F7LA_Sny-68">
          <mxGeometry relative="1" as="geometry" />
        </mxCell>
        <mxCell id="_s2NQ5ghen87F7LA_Sny-61" value="帧需要返回状态报告？" style="rhombus;whiteSpace=wrap;html=1;" vertex="1" parent="1">
          <mxGeometry x="610" y="1140" width="115" height="80" as="geometry" />
        </mxCell>
        <mxCell id="_s2NQ5ghen87F7LA_Sny-66" value="" style="edgeStyle=orthogonalEdgeStyle;rounded=0;orthogonalLoop=1;jettySize=auto;html=1;" edge="1" parent="1" source="_s2NQ5ghen87F7LA_Sny-63" target="_s2NQ5ghen87F7LA_Sny-65">
          <mxGeometry relative="1" as="geometry" />
        </mxCell>
        <mxCell id="_s2NQ5ghen87F7LA_Sny-80" style="edgeStyle=orthogonalEdgeStyle;rounded=0;orthogonalLoop=1;jettySize=auto;html=1;entryX=0;entryY=0.5;entryDx=0;entryDy=0;" edge="1" parent="1" source="_s2NQ5ghen87F7LA_Sny-63" target="_s2NQ5ghen87F7LA_Sny-77">
          <mxGeometry relative="1" as="geometry">
            <Array as="points">
              <mxPoint x="480" y="1340" />
            </Array>
          </mxGeometry>
        </mxCell>
        <mxCell id="_s2NQ5ghen87F7LA_Sny-63" value="构建ReportMap放进队列" style="whiteSpace=wrap;html=1;" vertex="1" parent="1">
          <mxGeometry x="420" y="1150" width="145" height="60" as="geometry" />
        </mxCell>
        <mxCell id="_s2NQ5ghen87F7LA_Sny-65" value="reportMapQueue" style="ellipse;whiteSpace=wrap;html=1;" vertex="1" parent="1">
          <mxGeometry x="252.5" y="1150" width="120" height="60" as="geometry" />
        </mxCell>
        <mxCell id="_s2NQ5ghen87F7LA_Sny-67" value="是" style="text;html=1;align=center;verticalAlign=middle;resizable=0;points=[];autosize=1;strokeColor=none;fillColor=none;" vertex="1" parent="1">
          <mxGeometry x="565" y="1160" width="30" height="20" as="geometry" />
        </mxCell>
        <mxCell id="_s2NQ5ghen87F7LA_Sny-71" value="" style="edgeStyle=orthogonalEdgeStyle;rounded=0;orthogonalLoop=1;jettySize=auto;html=1;" edge="1" parent="1" source="_s2NQ5ghen87F7LA_Sny-68" target="_s2NQ5ghen87F7LA_Sny-70">
          <mxGeometry relative="1" as="geometry" />
        </mxCell>
        <mxCell id="_s2NQ5ghen87F7LA_Sny-78" value="" style="edgeStyle=orthogonalEdgeStyle;rounded=0;orthogonalLoop=1;jettySize=auto;html=1;" edge="1" parent="1" source="_s2NQ5ghen87F7LA_Sny-68" target="_s2NQ5ghen87F7LA_Sny-77">
          <mxGeometry relative="1" as="geometry" />
        </mxCell>
        <mxCell id="_s2NQ5ghen87F7LA_Sny-68" value="返回状态是否成功状态" style="rhombus;whiteSpace=wrap;html=1;" vertex="1" parent="1">
          <mxGeometry x="822.5" y="1140" width="80" height="80" as="geometry" />
        </mxCell>
        <mxCell id="_s2NQ5ghen87F7LA_Sny-74" value="" style="edgeStyle=orthogonalEdgeStyle;rounded=0;orthogonalLoop=1;jettySize=auto;html=1;" edge="1" parent="1" source="_s2NQ5ghen87F7LA_Sny-70" target="_s2NQ5ghen87F7LA_Sny-73">
          <mxGeometry relative="1" as="geometry" />
        </mxCell>
        <mxCell id="_s2NQ5ghen87F7LA_Sny-70" value="msgId为空或非法的ticket创建msgID" style="whiteSpace=wrap;html=1;" vertex="1" parent="1">
          <mxGeometry x="962.5" y="1150" width="120" height="60" as="geometry" />
        </mxCell>
        <mxCell id="_s2NQ5ghen87F7LA_Sny-72" value="否" style="text;html=1;align=center;verticalAlign=middle;resizable=0;points=[];autosize=1;strokeColor=none;fillColor=none;" vertex="1" parent="1">
          <mxGeometry x="902.5" y="1160" width="30" height="20" as="geometry" />
        </mxCell>
        <mxCell id="_s2NQ5ghen87F7LA_Sny-76" value="" style="edgeStyle=orthogonalEdgeStyle;rounded=0;orthogonalLoop=1;jettySize=auto;html=1;" edge="1" parent="1" source="_s2NQ5ghen87F7LA_Sny-73" target="_s2NQ5ghen87F7LA_Sny-75">
          <mxGeometry relative="1" as="geometry" />
        </mxCell>
        <mxCell id="_s2NQ5ghen87F7LA_Sny-73" value="构造失败状态报告，放进队列" style="whiteSpace=wrap;html=1;" vertex="1" parent="1">
          <mxGeometry x="1162.5" y="1150" width="120" height="60" as="geometry" />
        </mxCell>
        <mxCell id="_s2NQ5ghen87F7LA_Sny-75" value="reportQueue" style="ellipse;whiteSpace=wrap;html=1;" vertex="1" parent="1">
          <mxGeometry x="1362.5" y="1150" width="120" height="60" as="geometry" />
        </mxCell>
        <mxCell id="_s2NQ5ghen87F7LA_Sny-82" value="" style="edgeStyle=orthogonalEdgeStyle;rounded=0;orthogonalLoop=1;jettySize=auto;html=1;" edge="1" parent="1" source="_s2NQ5ghen87F7LA_Sny-77" target="_s2NQ5ghen87F7LA_Sny-81">
          <mxGeometry relative="1" as="geometry" />
        </mxCell>
        <mxCell id="_s2NQ5ghen87F7LA_Sny-77" value="frameEnvoloperMap移除帧，移除pack" style="whiteSpace=wrap;html=1;" vertex="1" parent="1">
          <mxGeometry x="802.5" y="1310" width="120" height="60" as="geometry" />
        </mxCell>
        <mxCell id="_s2NQ5ghen87F7LA_Sny-79" value="是" style="text;html=1;align=center;verticalAlign=middle;resizable=0;points=[];autosize=1;strokeColor=none;fillColor=none;" vertex="1" parent="1">
          <mxGeometry x="865" y="1240" width="30" height="20" as="geometry" />
        </mxCell>
        <mxCell id="_s2NQ5ghen87F7LA_Sny-84" value="" style="edgeStyle=orthogonalEdgeStyle;rounded=0;orthogonalLoop=1;jettySize=auto;html=1;" edge="1" parent="1" source="_s2NQ5ghen87F7LA_Sny-81" target="_s2NQ5ghen87F7LA_Sny-83">
          <mxGeometry relative="1" as="geometry" />
        </mxCell>
        <mxCell id="_s2NQ5ghen87F7LA_Sny-87" value="" style="edgeStyle=orthogonalEdgeStyle;rounded=0;orthogonalLoop=1;jettySize=auto;html=1;" edge="1" parent="1" source="_s2NQ5ghen87F7LA_Sny-81" target="_s2NQ5ghen87F7LA_Sny-86">
          <mxGeometry relative="1" as="geometry" />
        </mxCell>
        <mxCell id="_s2NQ5ghen87F7LA_Sny-81" value="放进本地队列" style="whiteSpace=wrap;html=1;" vertex="1" parent="1">
          <mxGeometry x="802.5" y="1450" width="120" height="60" as="geometry" />
        </mxCell>
        <mxCell id="_s2NQ5ghen87F7LA_Sny-83" value="waitCommitFrames" style="ellipse;whiteSpace=wrap;html=1;" vertex="1" parent="1">
          <mxGeometry x="1002.5" y="1450" width="120" height="60" as="geometry" />
        </mxCell>
        <mxCell id="_s2NQ5ghen87F7LA_Sny-85" value="用于帧的确认操作" style="text;html=1;align=center;verticalAlign=middle;resizable=0;points=[];autosize=1;strokeColor=none;fillColor=none;" vertex="1" parent="1">
          <mxGeometry x="1007.5" y="1420" width="110" height="20" as="geometry" />
        </mxCell>
        <mxCell id="_s2NQ5ghen87F7LA_Sny-89" value="" style="edgeStyle=orthogonalEdgeStyle;rounded=0;orthogonalLoop=1;jettySize=auto;html=1;" edge="1" parent="1" source="_s2NQ5ghen87F7LA_Sny-86" target="_s2NQ5ghen87F7LA_Sny-88">
          <mxGeometry relative="1" as="geometry" />
        </mxCell>
        <mxCell id="_s2NQ5ghen87F7LA_Sny-91" value="" style="edgeStyle=orthogonalEdgeStyle;rounded=0;orthogonalLoop=1;jettySize=auto;html=1;" edge="1" parent="1" source="_s2NQ5ghen87F7LA_Sny-86" target="_s2NQ5ghen87F7LA_Sny-90">
          <mxGeometry relative="1" as="geometry" />
        </mxCell>
        <mxCell id="_s2NQ5ghen87F7LA_Sny-86" value="ticketCache添加ticket" style="whiteSpace=wrap;html=1;" vertex="1" parent="1">
          <mxGeometry x="802.5" y="1590" width="120" height="60" as="geometry" />
        </mxCell>
        <mxCell id="_s2NQ5ghen87F7LA_Sny-88" value="ticketCache" style="ellipse;whiteSpace=wrap;html=1;" vertex="1" parent="1">
          <mxGeometry x="1002.5" y="1590" width="120" height="60" as="geometry" />
        </mxCell>
        <mxCell id="_s2NQ5ghen87F7LA_Sny-90" value="结束" style="shape=hexagon;perimeter=hexagonPerimeter2;whiteSpace=wrap;html=1;fixedSize=1;" vertex="1" parent="1">
          <mxGeometry x="813.75" y="1690" width="97.5" height="50" as="geometry" />
        </mxCell>
        <mxCell id="_s2NQ5ghen87F7LA_Sny-92" value="用于ticket的确认" style="text;html=1;align=center;verticalAlign=middle;resizable=0;points=[];autosize=1;strokeColor=none;fillColor=none;" vertex="1" parent="1">
          <mxGeometry x="1012.5" y="1660" width="100" height="20" as="geometry" />
        </mxCell>
        <mxCell id="_s2NQ5ghen87F7LA_Sny-101" value="" style="edgeStyle=orthogonalEdgeStyle;rounded=0;orthogonalLoop=1;jettySize=auto;html=1;" edge="1" parent="1" source="_s2NQ5ghen87F7LA_Sny-93" target="_s2NQ5ghen87F7LA_Sny-100">
          <mxGeometry relative="1" as="geometry" />
        </mxCell>
        <mxCell id="_s2NQ5ghen87F7LA_Sny-93" value="登录结果放进本地队列" style="whiteSpace=wrap;html=1;" vertex="1" parent="1">
          <mxGeometry x="400" y="170" width="120" height="60" as="geometry" />
        </mxCell>
        <mxCell id="_s2NQ5ghen87F7LA_Sny-95" value="发送ticket结果" style="text;html=1;align=center;verticalAlign=middle;resizable=0;points=[];autosize=1;strokeColor=none;fillColor=none;" vertex="1" parent="1">
          <mxGeometry x="130" y="110" width="90" height="20" as="geometry" />
        </mxCell>
        <mxCell id="_s2NQ5ghen87F7LA_Sny-97" value="" style="edgeStyle=orthogonalEdgeStyle;rounded=0;orthogonalLoop=1;jettySize=auto;html=1;endArrow=none;" edge="1" parent="1" source="_s2NQ5ghen87F7LA_Sny-1" target="_s2NQ5ghen87F7LA_Sny-95">
          <mxGeometry relative="1" as="geometry">
            <mxPoint x="260" y="50" as="sourcePoint" />
            <mxPoint x="175" y="170" as="targetPoint" />
          </mxGeometry>
        </mxCell>
        <mxCell id="_s2NQ5ghen87F7LA_Sny-98" value="登录结果" style="text;html=1;align=center;verticalAlign=middle;resizable=0;points=[];autosize=1;strokeColor=none;fillColor=none;" vertex="1" parent="1">
          <mxGeometry x="430" y="110" width="60" height="20" as="geometry" />
        </mxCell>
        <mxCell id="_s2NQ5ghen87F7LA_Sny-99" value="" style="edgeStyle=orthogonalEdgeStyle;rounded=0;orthogonalLoop=1;jettySize=auto;html=1;endArrow=none;" edge="1" parent="1" source="_s2NQ5ghen87F7LA_Sny-1" target="_s2NQ5ghen87F7LA_Sny-98">
          <mxGeometry relative="1" as="geometry">
            <mxPoint x="380" y="50" as="sourcePoint" />
            <mxPoint x="460" y="170" as="targetPoint" />
          </mxGeometry>
        </mxCell>
        <mxCell id="_s2NQ5ghen87F7LA_Sny-100" value="task" style="ellipse;whiteSpace=wrap;html=1;" vertex="1" parent="1">
          <mxGeometry x="400" y="270" width="120" height="60" as="geometry" />
        </mxCell>
        <mxCell id="_s2NQ5ghen87F7LA_Sny-102" value="关闭通道" style="whiteSpace=wrap;html=1;" vertex="1" parent="1">
          <mxGeometry x="630" y="170" width="120" height="60" as="geometry" />
        </mxCell>
        <mxCell id="_s2NQ5ghen87F7LA_Sny-104" value="关闭通道" style="text;html=1;align=center;verticalAlign=middle;resizable=0;points=[];autosize=1;strokeColor=none;fillColor=none;" vertex="1" parent="1">
          <mxGeometry x="665" y="110" width="60" height="20" as="geometry" />
        </mxCell>
        <mxCell id="_s2NQ5ghen87F7LA_Sny-105" value="" style="edgeStyle=orthogonalEdgeStyle;rounded=0;orthogonalLoop=1;jettySize=auto;html=1;endArrow=none;" edge="1" parent="1" source="_s2NQ5ghen87F7LA_Sny-1">
          <mxGeometry relative="1" as="geometry">
            <mxPoint x="380" y="50" as="sourcePoint" />
            <mxPoint x="690" y="100" as="targetPoint" />
          </mxGeometry>
        </mxCell>
        <mxCell id="_s2NQ5ghen87F7LA_Sny-106" value="返回心跳包" style="whiteSpace=wrap;html=1;" vertex="1" parent="1">
          <mxGeometry x="813.75" y="170" width="120" height="60" as="geometry" />
        </mxCell>
        <mxCell id="_s2NQ5ghen87F7LA_Sny-108" value="心跳" style="text;html=1;align=center;verticalAlign=middle;resizable=0;points=[];autosize=1;strokeColor=none;fillColor=none;" vertex="1" parent="1">
          <mxGeometry x="865" y="100" width="40" height="20" as="geometry" />
        </mxCell>
        <mxCell id="_s2NQ5ghen87F7LA_Sny-109" value="" style="edgeStyle=orthogonalEdgeStyle;rounded=0;orthogonalLoop=1;jettySize=auto;html=1;endArrow=none;" edge="1" parent="1" source="_s2NQ5ghen87F7LA_Sny-1">
          <mxGeometry relative="1" as="geometry">
            <mxPoint x="380" y="50" as="sourcePoint" />
            <mxPoint x="880" y="99" as="targetPoint" />
            <Array as="points">
              <mxPoint x="880" y="50" />
              <mxPoint x="880" y="99" />
            </Array>
          </mxGeometry>
        </mxCell>
        <mxCell id="_s2NQ5ghen87F7LA_Sny-115" value="" style="edgeStyle=orthogonalEdgeStyle;rounded=0;orthogonalLoop=1;jettySize=auto;html=1;" edge="1" parent="1" source="_s2NQ5ghen87F7LA_Sny-111" target="_s2NQ5ghen87F7LA_Sny-114">
          <mxGeometry relative="1" as="geometry" />
        </mxCell>
        <mxCell id="_s2NQ5ghen87F7LA_Sny-111" value="从结果中获取状态报告，并设置状态，通道ID" style="whiteSpace=wrap;html=1;" vertex="1" parent="1">
          <mxGeometry x="1205" y="170" width="120" height="60" as="geometry" />
        </mxCell>
        <mxCell id="_s2NQ5ghen87F7LA_Sny-113" value="状态报告" style="text;html=1;align=center;verticalAlign=middle;resizable=0;points=[];autosize=1;strokeColor=none;fillColor=none;" vertex="1" parent="1">
          <mxGeometry x="1235" y="100" width="60" height="20" as="geometry" />
        </mxCell>
        <mxCell id="_s2NQ5ghen87F7LA_Sny-117" value="" style="edgeStyle=orthogonalEdgeStyle;rounded=0;orthogonalLoop=1;jettySize=auto;html=1;" edge="1" parent="1" source="_s2NQ5ghen87F7LA_Sny-114" target="_s2NQ5ghen87F7LA_Sny-116">
          <mxGeometry relative="1" as="geometry" />
        </mxCell>
        <mxCell id="_s2NQ5ghen87F7LA_Sny-114" value="放进本地队列" style="whiteSpace=wrap;html=1;" vertex="1" parent="1">
          <mxGeometry x="1205" y="280" width="120" height="60" as="geometry" />
        </mxCell>
        <mxCell id="_s2NQ5ghen87F7LA_Sny-116" value="reportQueue" style="ellipse;whiteSpace=wrap;html=1;" vertex="1" parent="1">
          <mxGeometry x="1005" y="280" width="120" height="60" as="geometry" />
        </mxCell>
        <mxCell id="_s2NQ5ghen87F7LA_Sny-120" value="" style="edgeStyle=orthogonalEdgeStyle;rounded=0;orthogonalLoop=1;jettySize=auto;html=1;" edge="1" parent="1" source="_s2NQ5ghen87F7LA_Sny-118" target="_s2NQ5ghen87F7LA_Sny-119">
          <mxGeometry relative="1" as="geometry" />
        </mxCell>
        <mxCell id="_s2NQ5ghen87F7LA_Sny-118" value="根据类型构造mo普通短信和mo长短信" style="whiteSpace=wrap;html=1;" vertex="1" parent="1">
          <mxGeometry x="1400" y="160" width="120" height="60" as="geometry" />
        </mxCell>
        <mxCell id="_s2NQ5ghen87F7LA_Sny-122" value="" style="edgeStyle=orthogonalEdgeStyle;rounded=0;orthogonalLoop=1;jettySize=auto;html=1;" edge="1" parent="1" source="_s2NQ5ghen87F7LA_Sny-119" target="_s2NQ5ghen87F7LA_Sny-121">
          <mxGeometry relative="1" as="geometry" />
        </mxCell>
        <mxCell id="_s2NQ5ghen87F7LA_Sny-119" value="缓存mo长短信" style="whiteSpace=wrap;html=1;" vertex="1" parent="1">
          <mxGeometry x="1400" y="250" width="120" height="60" as="geometry" />
        </mxCell>
        <mxCell id="_s2NQ5ghen87F7LA_Sny-124" value="" style="edgeStyle=orthogonalEdgeStyle;rounded=0;orthogonalLoop=1;jettySize=auto;html=1;" edge="1" parent="1" source="_s2NQ5ghen87F7LA_Sny-121" target="_s2NQ5ghen87F7LA_Sny-123">
          <mxGeometry relative="1" as="geometry" />
        </mxCell>
        <mxCell id="_s2NQ5ghen87F7LA_Sny-126" value="" style="edgeStyle=orthogonalEdgeStyle;rounded=0;orthogonalLoop=1;jettySize=auto;html=1;" edge="1" parent="1" source="_s2NQ5ghen87F7LA_Sny-121" target="_s2NQ5ghen87F7LA_Sny-125">
          <mxGeometry relative="1" as="geometry" />
        </mxCell>
        <mxCell id="_s2NQ5ghen87F7LA_Sny-121" value="mo短信放到本地队列" style="whiteSpace=wrap;html=1;" vertex="1" parent="1">
          <mxGeometry x="1400" y="340" width="120" height="60" as="geometry" />
        </mxCell>
        <mxCell id="_s2NQ5ghen87F7LA_Sny-123" value="返回结果给运营商" style="whiteSpace=wrap;html=1;" vertex="1" parent="1">
          <mxGeometry x="1400" y="440" width="120" height="60" as="geometry" />
        </mxCell>
        <mxCell id="_s2NQ5ghen87F7LA_Sny-125" value="moTickets" style="ellipse;whiteSpace=wrap;html=1;" vertex="1" parent="1">
          <mxGeometry x="1600" y="340" width="120" height="60" as="geometry" />
        </mxCell>
      </root>
    </mxGraphModel>
  </diagram>
</mxfile>
